<mxfile host="app.diagrams.net" agent="Mozilla/5.0 (Windows NT 10.0; Win64; x64) AppleWebKit/537.36 (KHTML, like Gecko) Chrome/131.0.0.0 Safari/537.36" version="24.8.8">
  <diagram id="a45cf8ec-cd66-6f27-3ac3-be6e809c9e4a" name="Page-1">
    <mxGraphModel dx="1434" dy="746" grid="1" gridSize="10" guides="1" tooltips="1" connect="1" arrows="1" fold="1" page="1" pageScale="1" pageWidth="827" pageHeight="1169" background="none" math="0" shadow="0">
      <root>
        <mxCell id="0" />
        <mxCell id="1" parent="0" />
        <mxCell id="Ycfr7iFavBcuT7G29TdK-42" style="edgeStyle=orthogonalEdgeStyle;rounded=0;orthogonalLoop=1;jettySize=auto;html=1;entryX=0;entryY=0.5;entryDx=0;entryDy=0;" parent="1" source="1Bmn15SIl-yNo8UjpxIB-174" target="1Bmn15SIl-yNo8UjpxIB-177" edge="1">
          <mxGeometry relative="1" as="geometry" />
        </mxCell>
        <mxCell id="1Bmn15SIl-yNo8UjpxIB-174" value="Serveur 1" style="image;html=1;image=img/lib/clip_art/computers/Server_128x128.png" parent="1" vertex="1">
          <mxGeometry x="40" y="439.38" width="130" height="86.25" as="geometry" />
        </mxCell>
        <mxCell id="Ycfr7iFavBcuT7G29TdK-7" style="edgeStyle=orthogonalEdgeStyle;rounded=0;orthogonalLoop=1;jettySize=auto;html=1;" parent="1" source="1Bmn15SIl-yNo8UjpxIB-176" target="1Bmn15SIl-yNo8UjpxIB-178" edge="1">
          <mxGeometry relative="1" as="geometry" />
        </mxCell>
        <mxCell id="1Bmn15SIl-yNo8UjpxIB-176" value="Switch Layer 3 1000Mb/s" style="image;html=1;image=img/lib/clip_art/networking/Switch_128x128.png" parent="1" vertex="1">
          <mxGeometry x="284" y="50" width="130" height="70" as="geometry" />
        </mxCell>
        <mxCell id="Ycfr7iFavBcuT7G29TdK-43" style="edgeStyle=orthogonalEdgeStyle;rounded=0;orthogonalLoop=1;jettySize=auto;html=1;entryX=0;entryY=0.5;entryDx=0;entryDy=0;" parent="1" source="1Bmn15SIl-yNo8UjpxIB-177" target="Ycfr7iFavBcuT7G29TdK-13" edge="1">
          <mxGeometry relative="1" as="geometry" />
        </mxCell>
        <mxCell id="1Bmn15SIl-yNo8UjpxIB-177" value="Switch Layer 3 1000Mb/s" style="image;html=1;image=img/lib/clip_art/networking/Switch_128x128.png" parent="1" vertex="1">
          <mxGeometry x="240" y="445" width="140" height="75" as="geometry" />
        </mxCell>
        <mxCell id="Ycfr7iFavBcuT7G29TdK-30" style="edgeStyle=orthogonalEdgeStyle;rounded=0;orthogonalLoop=1;jettySize=auto;html=1;" parent="1" source="1Bmn15SIl-yNo8UjpxIB-178" target="Ycfr7iFavBcuT7G29TdK-1" edge="1">
          <mxGeometry relative="1" as="geometry" />
        </mxCell>
        <mxCell id="Ycfr7iFavBcuT7G29TdK-31" style="edgeStyle=orthogonalEdgeStyle;rounded=0;orthogonalLoop=1;jettySize=auto;html=1;" parent="1" source="1Bmn15SIl-yNo8UjpxIB-178" target="Ycfr7iFavBcuT7G29TdK-27" edge="1">
          <mxGeometry relative="1" as="geometry" />
        </mxCell>
        <mxCell id="1Bmn15SIl-yNo8UjpxIB-178" value="Switch Layer 3 1000Mb/s" style="image;html=1;image=img/lib/clip_art/networking/Switch_128x128.png" parent="1" vertex="1">
          <mxGeometry x="550" y="50" width="130" height="70" as="geometry" />
        </mxCell>
        <mxCell id="Ycfr7iFavBcuT7G29TdK-1" value="Serveur 2" style="image;html=1;image=img/lib/clip_art/computers/Server_128x128.png" parent="1" vertex="1">
          <mxGeometry x="649" y="210" width="130" height="80" as="geometry" />
        </mxCell>
        <mxCell id="Ycfr7iFavBcuT7G29TdK-5" style="edgeStyle=orthogonalEdgeStyle;rounded=0;orthogonalLoop=1;jettySize=auto;html=1;" parent="1" source="Ycfr7iFavBcuT7G29TdK-4" target="1Bmn15SIl-yNo8UjpxIB-176" edge="1">
          <mxGeometry relative="1" as="geometry" />
        </mxCell>
        <mxCell id="Ycfr7iFavBcuT7G29TdK-6" value="Fibre optique 1Gb/S" style="edgeLabel;html=1;align=center;verticalAlign=middle;resizable=0;points=[];" parent="Ycfr7iFavBcuT7G29TdK-5" vertex="1" connectable="0">
          <mxGeometry x="-0.2831" y="2" relative="1" as="geometry">
            <mxPoint x="16" y="-13" as="offset" />
          </mxGeometry>
        </mxCell>
        <mxCell id="Ycfr7iFavBcuT7G29TdK-4" value="Internet DHCP" style="image;aspect=fixed;perimeter=ellipsePerimeter;html=1;align=center;shadow=0;dashed=0;spacingTop=3;image=img/lib/active_directory/internet_cloud.svg;" parent="1" vertex="1">
          <mxGeometry x="40" y="42.5" width="134.92" height="85" as="geometry" />
        </mxCell>
        <mxCell id="Ycfr7iFavBcuT7G29TdK-8" value="Patch câble Cat6" style="text;html=1;align=center;verticalAlign=middle;resizable=0;points=[];autosize=1;strokeColor=none;fillColor=none;" parent="1" vertex="1">
          <mxGeometry x="425" y="58" width="110" height="30" as="geometry" />
        </mxCell>
        <mxCell id="Ycfr7iFavBcuT7G29TdK-10" style="edgeStyle=orthogonalEdgeStyle;rounded=0;orthogonalLoop=1;jettySize=auto;html=1;exitX=0.5;exitY=1;exitDx=0;exitDy=0;" parent="1" source="1Bmn15SIl-yNo8UjpxIB-178" target="1Bmn15SIl-yNo8UjpxIB-178" edge="1">
          <mxGeometry relative="1" as="geometry" />
        </mxCell>
        <mxCell id="Ycfr7iFavBcuT7G29TdK-44" style="edgeStyle=orthogonalEdgeStyle;rounded=0;orthogonalLoop=1;jettySize=auto;html=1;" parent="1" source="Ycfr7iFavBcuT7G29TdK-13" target="Ycfr7iFavBcuT7G29TdK-14" edge="1">
          <mxGeometry relative="1" as="geometry" />
        </mxCell>
        <mxCell id="Ycfr7iFavBcuT7G29TdK-13" value="Switch Layer 3 1000Mb/s" style="image;html=1;image=img/lib/clip_art/networking/Switch_128x128.png" parent="1" vertex="1">
          <mxGeometry x="460" y="445" width="145" height="75" as="geometry" />
        </mxCell>
        <mxCell id="Ycfr7iFavBcuT7G29TdK-45" style="edgeStyle=orthogonalEdgeStyle;rounded=0;orthogonalLoop=1;jettySize=auto;html=1;" parent="1" source="Ycfr7iFavBcuT7G29TdK-14" target="Ycfr7iFavBcuT7G29TdK-40" edge="1">
          <mxGeometry relative="1" as="geometry" />
        </mxCell>
        <mxCell id="Ycfr7iFavBcuT7G29TdK-50" style="edgeStyle=orthogonalEdgeStyle;rounded=0;orthogonalLoop=1;jettySize=auto;html=1;" parent="1" source="Ycfr7iFavBcuT7G29TdK-14" target="Ycfr7iFavBcuT7G29TdK-46" edge="1">
          <mxGeometry relative="1" as="geometry">
            <Array as="points">
              <mxPoint x="740" y="590" />
              <mxPoint x="625" y="590" />
            </Array>
          </mxGeometry>
        </mxCell>
        <mxCell id="Ycfr7iFavBcuT7G29TdK-52" style="edgeStyle=orthogonalEdgeStyle;rounded=0;orthogonalLoop=1;jettySize=auto;html=1;" parent="1" target="Ycfr7iFavBcuT7G29TdK-47" edge="1">
          <mxGeometry relative="1" as="geometry">
            <Array as="points">
              <mxPoint x="507" y="590" />
            </Array>
            <mxPoint x="740" y="550" as="sourcePoint" />
          </mxGeometry>
        </mxCell>
        <mxCell id="Ycfr7iFavBcuT7G29TdK-14" value="Patch panel" style="fontColor=#000000;verticalAlign=top;verticalLabelPosition=bottom;labelPosition=center;align=center;html=1;outlineConnect=0;fillColor=#CCCCCC;strokeColor=#6881B3;gradientColor=none;gradientDirection=north;strokeWidth=2;shape=mxgraph.networks.patch_panel;" parent="1" vertex="1">
          <mxGeometry x="690" y="465" width="100" height="35" as="geometry" />
        </mxCell>
        <mxCell id="Ycfr7iFavBcuT7G29TdK-21" value="Zyxel GS1920-24" style="text;html=1;align=center;verticalAlign=middle;resizable=0;points=[];autosize=1;strokeColor=none;fillColor=none;" parent="1" vertex="1">
          <mxGeometry x="284" y="20" width="120" height="30" as="geometry" />
        </mxCell>
        <mxCell id="Ycfr7iFavBcuT7G29TdK-22" value="Port 28 SFP" style="text;html=1;align=center;verticalAlign=middle;resizable=0;points=[];autosize=1;strokeColor=none;fillColor=none;" parent="1" vertex="1">
          <mxGeometry x="220" y="97.5" width="90" height="30" as="geometry" />
        </mxCell>
        <mxCell id="Ycfr7iFavBcuT7G29TdK-23" value="Zyxel GS1920-24" style="text;html=1;align=center;verticalAlign=middle;resizable=0;points=[];autosize=1;strokeColor=none;fillColor=none;" parent="1" vertex="1">
          <mxGeometry x="555" y="20" width="120" height="30" as="geometry" />
        </mxCell>
        <mxCell id="Ycfr7iFavBcuT7G29TdK-24" value="Port 24 RJ45" style="text;html=1;align=center;verticalAlign=middle;resizable=0;points=[];autosize=1;strokeColor=none;fillColor=none;" parent="1" vertex="1">
          <mxGeometry x="365" y="97.5" width="90" height="30" as="geometry" />
        </mxCell>
        <mxCell id="Ycfr7iFavBcuT7G29TdK-25" value="Port 24 RJ45" style="text;html=1;align=center;verticalAlign=middle;resizable=0;points=[];autosize=1;strokeColor=none;fillColor=none;" parent="1" vertex="1">
          <mxGeometry x="490" y="97.5" width="90" height="30" as="geometry" />
        </mxCell>
        <mxCell id="Ycfr7iFavBcuT7G29TdK-27" value="Serveur 1" style="image;html=1;image=img/lib/clip_art/computers/Server_128x128.png" parent="1" vertex="1">
          <mxGeometry x="450" y="210" width="130" height="80" as="geometry" />
        </mxCell>
        <mxCell id="Ycfr7iFavBcuT7G29TdK-32" value="Port 21 RJ45" style="text;html=1;align=center;verticalAlign=middle;resizable=0;points=[];autosize=1;strokeColor=none;fillColor=none;" parent="1" vertex="1">
          <mxGeometry x="510" y="160" width="90" height="30" as="geometry" />
        </mxCell>
        <mxCell id="Ycfr7iFavBcuT7G29TdK-33" value="Port 23 RJ45" style="text;html=1;align=center;verticalAlign=middle;resizable=0;points=[];autosize=1;strokeColor=none;fillColor=none;" parent="1" vertex="1">
          <mxGeometry x="630" y="160" width="90" height="30" as="geometry" />
        </mxCell>
        <mxCell id="Ycfr7iFavBcuT7G29TdK-35" value="Patch câble Cat6" style="text;html=1;align=center;verticalAlign=middle;resizable=0;points=[];autosize=1;strokeColor=none;fillColor=none;" parent="1" vertex="1">
          <mxGeometry x="460" y="138" width="110" height="30" as="geometry" />
        </mxCell>
        <mxCell id="Ycfr7iFavBcuT7G29TdK-36" value="Patch câble Cat6" style="text;html=1;align=center;verticalAlign=middle;resizable=0;points=[];autosize=1;strokeColor=none;fillColor=none;" parent="1" vertex="1">
          <mxGeometry x="659" y="138" width="110" height="30" as="geometry" />
        </mxCell>
        <mxCell id="Ycfr7iFavBcuT7G29TdK-38" value="Port 1 RJ45" style="text;html=1;align=center;verticalAlign=middle;resizable=0;points=[];autosize=1;strokeColor=none;fillColor=none;" parent="1" vertex="1">
          <mxGeometry x="400" y="200" width="90" height="30" as="geometry" />
        </mxCell>
        <mxCell id="Ycfr7iFavBcuT7G29TdK-39" value="Port 1 RJ45" style="text;html=1;align=center;verticalAlign=middle;resizable=0;points=[];autosize=1;strokeColor=none;fillColor=none;" parent="1" vertex="1">
          <mxGeometry x="737" y="200" width="90" height="30" as="geometry" />
        </mxCell>
        <mxCell id="Ycfr7iFavBcuT7G29TdK-40" value="Anthony" style="sketch=0;pointerEvents=1;shadow=0;dashed=0;html=1;strokeColor=none;fillColor=#505050;labelPosition=center;verticalLabelPosition=bottom;verticalAlign=top;outlineConnect=0;align=center;shape=mxgraph.office.devices.workstation_pc;" parent="1" vertex="1">
          <mxGeometry x="713.5" y="640" width="53" height="59" as="geometry" />
        </mxCell>
        <mxCell id="Ycfr7iFavBcuT7G29TdK-46" value="Amir" style="sketch=0;pointerEvents=1;shadow=0;dashed=0;html=1;strokeColor=none;fillColor=#505050;labelPosition=center;verticalLabelPosition=bottom;verticalAlign=top;outlineConnect=0;align=center;shape=mxgraph.office.devices.workstation_pc;" parent="1" vertex="1">
          <mxGeometry x="598.5" y="640" width="53" height="59" as="geometry" />
        </mxCell>
        <mxCell id="Ycfr7iFavBcuT7G29TdK-47" value="Francesco" style="sketch=0;pointerEvents=1;shadow=0;dashed=0;html=1;strokeColor=none;fillColor=#505050;labelPosition=center;verticalLabelPosition=bottom;verticalAlign=top;outlineConnect=0;align=center;shape=mxgraph.office.devices.workstation_pc;" parent="1" vertex="1">
          <mxGeometry x="480" y="640" width="53" height="59" as="geometry" />
        </mxCell>
        <mxCell id="Ycfr7iFavBcuT7G29TdK-53" value="Zyxel GS1920-24" style="text;html=1;align=center;verticalAlign=middle;resizable=0;points=[];autosize=1;strokeColor=none;fillColor=none;" parent="1" vertex="1">
          <mxGeometry x="250" y="410" width="120" height="30" as="geometry" />
        </mxCell>
        <mxCell id="Ycfr7iFavBcuT7G29TdK-54" value="Zyxel GS1920-24" style="text;html=1;align=center;verticalAlign=middle;resizable=0;points=[];autosize=1;strokeColor=none;fillColor=none;" parent="1" vertex="1">
          <mxGeometry x="472.5" y="410" width="120" height="30" as="geometry" />
        </mxCell>
        <mxCell id="Ycfr7iFavBcuT7G29TdK-58" style="edgeStyle=orthogonalEdgeStyle;rounded=0;orthogonalLoop=1;jettySize=auto;html=1;" parent="1" source="Ycfr7iFavBcuT7G29TdK-57" target="1Bmn15SIl-yNo8UjpxIB-177" edge="1">
          <mxGeometry relative="1" as="geometry">
            <Array as="points">
              <mxPoint x="200" y="613" />
              <mxPoint x="200" y="483" />
            </Array>
          </mxGeometry>
        </mxCell>
        <mxCell id="Ycfr7iFavBcuT7G29TdK-57" value="Serveur 2" style="image;html=1;image=img/lib/clip_art/computers/Server_128x128.png" parent="1" vertex="1">
          <mxGeometry x="40" y="570" width="130" height="86.25" as="geometry" />
        </mxCell>
        <mxCell id="Ycfr7iFavBcuT7G29TdK-59" value="Port 2 RJ45" style="text;html=1;align=center;verticalAlign=middle;resizable=0;points=[];autosize=1;strokeColor=none;fillColor=none;" parent="1" vertex="1">
          <mxGeometry y="640" width="90" height="30" as="geometry" />
        </mxCell>
        <mxCell id="Ycfr7iFavBcuT7G29TdK-60" value="Port 2 RJ45" style="text;html=1;align=center;verticalAlign=middle;resizable=0;points=[];autosize=1;strokeColor=none;fillColor=none;" parent="1" vertex="1">
          <mxGeometry y="510" width="90" height="30" as="geometry" />
        </mxCell>
        <mxCell id="Ycfr7iFavBcuT7G29TdK-61" value="Patch câble Cat6" style="text;html=1;align=center;verticalAlign=middle;resizable=0;points=[];autosize=1;strokeColor=none;fillColor=none;" parent="1" vertex="1">
          <mxGeometry x="150" y="430" width="110" height="30" as="geometry" />
        </mxCell>
        <mxCell id="Ycfr7iFavBcuT7G29TdK-63" value="Patch câble Cat6" style="text;html=1;align=center;verticalAlign=middle;resizable=0;points=[];autosize=1;strokeColor=none;fillColor=none;" parent="1" vertex="1">
          <mxGeometry x="360" y="445" width="110" height="30" as="geometry" />
        </mxCell>
        <mxCell id="Ycfr7iFavBcuT7G29TdK-64" value="Patch câble Cat6" style="text;html=1;align=center;verticalAlign=middle;resizable=0;points=[];autosize=1;strokeColor=none;fillColor=none;" parent="1" vertex="1">
          <mxGeometry x="590" y="450" width="110" height="30" as="geometry" />
        </mxCell>
        <mxCell id="Ycfr7iFavBcuT7G29TdK-65" value="Patch câble Cat7" style="text;html=1;align=center;verticalAlign=middle;resizable=0;points=[];autosize=1;strokeColor=none;fillColor=none;" parent="1" vertex="1">
          <mxGeometry x="630" y="560" width="110" height="30" as="geometry" />
        </mxCell>
        <mxCell id="Ycfr7iFavBcuT7G29TdK-66" value="Port 22 RJ45" style="text;html=1;align=center;verticalAlign=middle;resizable=0;points=[];autosize=1;strokeColor=none;fillColor=none;" parent="1" vertex="1">
          <mxGeometry x="210" y="540" width="90" height="30" as="geometry" />
        </mxCell>
        <mxCell id="Ycfr7iFavBcuT7G29TdK-67" value="Port 24 RJ45" style="text;html=1;align=center;verticalAlign=middle;resizable=0;points=[];autosize=1;strokeColor=none;fillColor=none;" parent="1" vertex="1">
          <mxGeometry x="210" y="555.63" width="90" height="30" as="geometry" />
        </mxCell>
        <mxCell id="Ycfr7iFavBcuT7G29TdK-68" value="Port 1 RJ45" style="text;html=1;align=center;verticalAlign=middle;resizable=0;points=[];autosize=1;strokeColor=none;fillColor=none;" parent="1" vertex="1">
          <mxGeometry x="314" y="540" width="90" height="30" as="geometry" />
        </mxCell>
        <mxCell id="Ycfr7iFavBcuT7G29TdK-69" value="Port 1 RJ45" style="text;html=1;align=center;verticalAlign=middle;resizable=0;points=[];autosize=1;strokeColor=none;fillColor=none;" parent="1" vertex="1">
          <mxGeometry x="425" y="540" width="90" height="30" as="geometry" />
        </mxCell>
        <mxCell id="Ycfr7iFavBcuT7G29TdK-70" value="Port 5 RJ45" style="text;html=1;align=center;verticalAlign=middle;resizable=0;points=[];autosize=1;strokeColor=none;fillColor=none;" parent="1" vertex="1">
          <mxGeometry x="540" y="530" width="90" height="30" as="geometry" />
        </mxCell>
        <mxCell id="Ycfr7iFavBcuT7G29TdK-75" value="Port 7 RJ45" style="text;html=1;align=center;verticalAlign=middle;resizable=0;points=[];autosize=1;strokeColor=none;fillColor=none;" parent="1" vertex="1">
          <mxGeometry x="540" y="545" width="90" height="30" as="geometry" />
        </mxCell>
        <mxCell id="Ycfr7iFavBcuT7G29TdK-77" value="Port 14&lt;span style=&quot;background-color: initial;&quot;&gt;&amp;nbsp;RJ45&lt;/span&gt;" style="text;html=1;align=center;verticalAlign=middle;resizable=0;points=[];autosize=1;strokeColor=none;fillColor=none;" parent="1" vertex="1">
          <mxGeometry x="540" y="560" width="90" height="30" as="geometry" />
        </mxCell>
        <mxCell id="Ycfr7iFavBcuT7G29TdK-78" value="Port 14&lt;span style=&quot;background-color: initial;&quot;&gt;&amp;nbsp;RJ45&lt;/span&gt;" style="text;html=1;align=center;verticalAlign=middle;resizable=0;points=[];autosize=1;strokeColor=none;fillColor=none;" parent="1" vertex="1">
          <mxGeometry x="630" y="525" width="90" height="30" as="geometry" />
        </mxCell>
        <mxCell id="Ycfr7iFavBcuT7G29TdK-79" value="Port 7 RJ45" style="text;html=1;align=center;verticalAlign=middle;resizable=0;points=[];autosize=1;strokeColor=none;fillColor=none;" parent="1" vertex="1">
          <mxGeometry x="630" y="510" width="90" height="30" as="geometry" />
        </mxCell>
        <mxCell id="Ycfr7iFavBcuT7G29TdK-80" value="Port 5 RJ45" style="text;html=1;align=center;verticalAlign=middle;resizable=0;points=[];autosize=1;strokeColor=none;fillColor=none;" parent="1" vertex="1">
          <mxGeometry x="630" y="495" width="90" height="30" as="geometry" />
        </mxCell>
        <mxCell id="Ycfr7iFavBcuT7G29TdK-81" value="Port 5 RJ45" style="text;html=1;align=center;verticalAlign=middle;resizable=0;points=[];autosize=1;strokeColor=none;fillColor=none;" parent="1" vertex="1">
          <mxGeometry x="425" y="590" width="90" height="30" as="geometry" />
        </mxCell>
        <mxCell id="Ycfr7iFavBcuT7G29TdK-82" value="Port 7 RJ45" style="text;html=1;align=center;verticalAlign=middle;resizable=0;points=[];autosize=1;strokeColor=none;fillColor=none;" parent="1" vertex="1">
          <mxGeometry x="540" y="590" width="90" height="30" as="geometry" />
        </mxCell>
        <mxCell id="Ycfr7iFavBcuT7G29TdK-83" value="Port 14 RJ45" style="text;html=1;align=center;verticalAlign=middle;resizable=0;points=[];autosize=1;strokeColor=none;fillColor=none;" parent="1" vertex="1">
          <mxGeometry x="651.5" y="590" width="90" height="30" as="geometry" />
        </mxCell>
        <mxCell id="oWrIDAjWkzCyalpOF_KL-3" value="..." style="rounded=0;whiteSpace=wrap;html=1;" vertex="1" parent="1">
          <mxGeometry x="725" y="535" width="30" height="20" as="geometry" />
        </mxCell>
      </root>
    </mxGraphModel>
  </diagram>
</mxfile>
